<svg xmlns="http://www.w3.org/2000/svg" width="80" height="80" viewBox="0 0 80 80">
  <g fill="none" fill-rule="evenodd">
    <circle cx="40" cy="9" r="9" fill="#FF8E78" fill-opacity=".62"/>
    <path fill="#34A275" d="M77.6843662,29.071634 C76.8805697,29.854236 75.9432506,30.8322109 75,31.9594861 C72.4788123,28.946424 70,27 70,27 C70,27 67.5211877,28.946424 65,31.9594861 C62.4788123,28.946424 60,27 60,27 C60,27 57.5211877,28.946424 55,31.9594861 C52.4788123,28.946424 50,27 50,27 C50,27 47.5211877,28.946424 45,31.9594861 C42.4788123,28.946424 40,27 40,27 C40,27 37.5211877,28.946424 35,31.9594861 C32.4788123,28.946424 30,27 30,27 C30,27 27.5211877,28.946424 25,31.9594861 C22.4788123,28.946424 20,27 20,27 C20,27 17.5211877,28.946424 15,31.9594861 C12.4788123,28.946424 10,27 10,27 C10,27 7.52118771,28.946424 5,31.9594861 C4.05674945,30.8322109 3.1194303,29.854236 2.31563379,29.071634 C2.20418399,29.3804137 2.09506399,29.6898771 1.98834111,30 C-0.704982417,37.8264488 -0.504575474,45.2329081 1.64356447,51.8287676 C2.78025948,51.5980663 3.93097015,51.1407203 5,50.4962434 C6.59090348,51.4553377 8.36270258,52 10,52 C11.6372974,52 13.4090965,51.4553377 15,50.4962434 C16.5909035,51.4553377 18.3627026,52 20,52 C21.6372974,52 23.4090965,51.4553377 25,50.4962434 C26.5909035,51.4553377 28.3627026,52 30,52 C31.6372974,52 33.4090965,51.4553377 35,50.4962434 C36.5909035,51.4553377 38.3627026,52 40,52 C41.6372974,52 43.4090965,51.4553377 45,50.4962434 C46.5909035,51.4553377 48.3627026,52 50,52 C51.6372974,52 53.4090965,51.4553377 55,50.4962434 C56.5909035,51.4553377 58.3627026,52 60,52 C61.6372974,52 63.4090965,51.4553377 65,50.4962434 C66.5909035,51.4553377 68.3627026,52 70,52 C71.6372974,52 73.4090965,51.4553377 75,50.4962434 C76.0690299,51.1407203 77.2197405,51.5980663 78.3564355,51.8287676 C80.5045755,45.2329081 80.7049824,37.8264488 78.0116589,30 C77.904936,29.6898771 77.795816,29.3804137 77.6843662,29.071634 L77.6843662,29.071634 Z"/>
    <path fill="#228059" d="M79.9952034,42.1027835 C79.9666762,41.2632167 79.8100628,40.3925325 79.5029147,39.5 C78.5282553,36.6677662 76.7538742,34.0555347 75,31.9594861 C73.2461258,34.0555347 71.4717447,36.6677662 70.4970853,39.5 C68.8625039,44.2498814 71.4913032,48.3809855 75,50.4962434 C77.5497906,48.959073 79.6349061,46.3573313 79.9568521,43.2271777 C79.9759608,42.8541021 79.9887884,42.4792859 79.9952034,42.1027835 L79.9952034,42.1027835 Z M0.0431478861,43.2271777 C0.36509387,46.3573313 2.45020936,48.959073 5,50.4962434 C8.50869681,48.3809855 11.1374961,44.2498814 9.50291472,39.5 C8.52825533,36.6677662 6.7538742,34.0555347 5,31.9594861 C3.2461258,34.0555347 1.47174467,36.6677662 0.497085276,39.5 C0.18993719,40.3925325 0.0333238124,41.2632167 0.00479661878,42.1027835 C0.0112115759,42.4792859 0.024039177,42.8541021 0.0431478861,43.2271777 L0.0431478861,43.2271777 Z M45,31.9594861 C46.7538742,34.0555347 48.5282553,36.6677662 49.5029147,39.5 C51.1374961,44.2498814 48.5086968,48.3809855 45,50.4962434 C41.4913032,48.3809855 38.8625039,44.2498814 40.4970853,39.5 C41.4717447,36.6677662 43.2461258,34.0555347 45,31.9594861 L45,31.9594861 Z M35,50.4962434 C31.4913032,48.3809855 28.8625039,44.2498814 30.4970853,39.5 C31.4717447,36.6677662 33.2461258,34.0555347 35,31.9594861 C36.7538742,34.0555347 38.5282553,36.6677662 39.5029147,39.5 C41.1374961,44.2498814 38.5086968,48.3809855 35,50.4962434 L35,50.4962434 Z M55,50.4962434 C51.4913032,48.3809855 48.8625039,44.2498814 50.4970853,39.5 C51.4717447,36.6677662 53.2461258,34.0555347 55,31.9594861 C56.7538742,34.0555347 58.5282553,36.6677662 59.5029147,39.5 C61.1374961,44.2498814 58.5086968,48.3809855 55,50.4962434 L55,50.4962434 Z M65,50.4962434 C61.4913032,48.3809855 58.8625039,44.2498814 60.4970853,39.5 C61.4717447,36.6677662 63.2461258,34.0555347 65,31.9594861 C66.7538742,34.0555347 68.5282553,36.6677662 69.5029147,39.5 C71.1374961,44.2498814 68.5086968,48.3809855 65,50.4962434 L65,50.4962434 Z M25,31.9594861 C26.7538742,34.0555347 28.5282553,36.6677662 29.5029147,39.5 C31.1374961,44.2498814 28.5086968,48.3809855 25,50.4962434 C21.4913032,48.3809855 18.8625039,44.2498814 20.4970853,39.5 C21.4717447,36.6677662 23.2461258,34.0555347 25,31.9594861 L25,31.9594861 Z M15,31.9594861 C16.7538742,34.0555347 18.5282553,36.6677662 19.5029147,39.5 C21.1374961,44.2498814 18.5086968,48.3809855 15,50.4962434 C11.4913032,48.3809855 8.8625039,44.2498814 10.4970853,39.5 C11.4717447,36.6677662 13.2461258,34.0555347 15,31.9594861 L15,31.9594861 Z"/>
    <path fill="#34485F" d="M79.9084943,39.0728901 C79.2114039,39.6322805 74.6416091,43.3718023 70,48.9189722 C64.9576246,42.892848 60,39 60,39 C60,39 55.0423754,42.892848 50,48.9189722 C44.9576246,42.892848 40,39 40,39 C40,39 35.0423754,42.892848 30,48.9189722 C24.9576246,42.892848 20,39 20,39 C20,39 15.0423754,42.892848 10,48.9189722 C5.35839092,43.3718023 0.788596122,39.6322805 0.0915056688,39.0728901 C-1.63302403,62.3556065 21.3620863,80 40,80 C58.6379137,80 81.633024,62.3556065 79.9084943,39.0728901 L79.9084943,39.0728901 Z"/>
    <path fill="#273648" d="M59.3447666,74.3726543 C54.2179114,77.3491634 48.6559846,79.2543475 43.3039982,79.8218759 C40.2674505,75.5121924 38.9282845,70.003197 40.9941706,64 C42.9434893,58.3355325 46.4922516,53.1110694 50,48.9189722 C53.5077484,53.1110694 57.0565107,58.3355325 59.0058294,64 C60.2792408,67.7003682 60.2589078,71.2129653 59.3447666,74.3726543 L59.3447666,74.3726543 Z M20.6552334,74.3726543 C19.7410922,71.2129653 19.7207592,67.7003682 20.9941706,64 C22.9434893,58.3355325 26.4922516,53.1110694 30,48.9189722 C33.5077484,53.1110694 37.0565107,58.3355325 39.0058294,64 C41.0717155,70.003197 39.7325495,75.5121924 36.6959996,79.8218757 C31.3440154,79.2543475 25.7820886,77.3491634 20.6552334,74.3726543 L20.6552334,74.3726543 Z M60.4743608,73.6950952 C59.7447158,70.7137666 59.8110745,67.4379236 60.9941706,64 C62.9434893,58.3355325 66.4922516,53.1110694 70,48.9189722 C72.0971611,51.4252817 74.2089823,54.3006031 75.9848934,57.4183471 C72.4324657,64.1534337 66.8349774,69.7554559 60.47437,73.6950896 L60.4743608,73.6950952 Z M19.5256392,73.6950952 C20.2552842,70.7137666 20.1889255,67.4379236 19.0058294,64 C17.0565107,58.3355325 13.5077484,53.1110694 10,48.9189722 C7.9028389,51.4252817 5.79101768,54.3006031 4.01510657,57.4183471 C7.56753433,64.1534337 13.1650226,69.7554559 19.52563,73.6950896 L19.5256392,73.6950952 Z"/>
  </g>
</svg>
