<svg xmlns="http://www.w3.org/2000/svg" width="30" height="30" viewBox="0 0 30 30">
  <g fill="none" fill-rule="evenodd">
    <circle cx="15" cy="3.375" r="3.375" fill="#FF8E78" fill-opacity=".62"/>
    <path fill="#34A275" d="M29.1316373,10.9018628 C28.8302136,11.1953385 28.478719,11.5620791 28.125,11.9848073 C27.1795546,10.854909 26.25,10.125 26.25,10.125 C26.25,10.125 25.3204454,10.854909 24.375,11.9848073 C23.4295546,10.854909 22.5,10.125 22.5,10.125 C22.5,10.125 21.5704454,10.854909 20.625,11.9848073 C19.6795546,10.854909 18.75,10.125 18.75,10.125 C18.75,10.125 17.8204454,10.854909 16.875,11.9848073 C15.9295546,10.854909 15,10.125 15,10.125 C15,10.125 14.0704454,10.854909 13.125,11.9848073 C12.1795546,10.854909 11.25,10.125 11.25,10.125 C11.25,10.125 10.3204454,10.854909 9.375,11.9848073 C8.42955461,10.854909 7.5,10.125 7.5,10.125 C7.5,10.125 6.57044539,10.854909 5.625,11.9848073 C4.67955461,10.854909 3.75,10.125 3.75,10.125 C3.75,10.125 2.82044539,10.854909 1.875,11.9848073 C1.52128104,11.5620791 1.16978636,11.1953385 0.868362673,10.9018628 C0.826568995,11.0176551 0.785648997,11.1337039 0.745627915,11.25 C-0.264368406,14.1849183 -0.189215803,16.9623405 0.616336678,19.4357878 C1.0425973,19.3492749 1.47411381,19.1777701 1.875,18.9360913 C2.4715888,19.2957516 3.13601347,19.5 3.75,19.5 C4.36398653,19.5 5.0284112,19.2957516 5.625,18.9360913 C6.2215888,19.2957516 6.88601347,19.5 7.5,19.5 C8.11398653,19.5 8.7784112,19.2957516 9.375,18.9360913 C9.9715888,19.2957516 10.6360135,19.5 11.25,19.5 C11.8639865,19.5 12.5284112,19.2957516 13.125,18.9360913 C13.7215888,19.2957516 14.3860135,19.5 15,19.5 C15.6139865,19.5 16.2784112,19.2957516 16.875,18.9360913 C17.4715888,19.2957516 18.1360135,19.5 18.75,19.5 C19.3639865,19.5 20.0284112,19.2957516 20.625,18.9360913 C21.2215888,19.2957516 21.8860135,19.5 22.5,19.5 C23.1139865,19.5 23.7784112,19.2957516 24.375,18.9360913 C24.9715888,19.2957516 25.6360135,19.5 26.25,19.5 C26.8639865,19.5 27.5284112,19.2957516 28.125,18.9360913 C28.5258862,19.1777701 28.9574027,19.3492749 29.3836633,19.4357878 C30.1892158,16.9623405 30.2643684,14.1849183 29.2543721,11.25 C29.214351,11.1337039 29.173431,11.0176551 29.1316373,10.9018628 L29.1316373,10.9018628 Z"/>
    <path fill="#228059" d="M29.9982013,15.7885438 C29.9875036,15.4737063 29.9287736,15.1471997 29.813593,14.8125 C29.4480957,13.7504123 28.7827028,12.7708255 28.125,11.9848073 C27.4672972,12.7708255 26.8019043,13.7504123 26.436407,14.8125 C25.823439,16.5937055 26.8092387,18.1428695 28.125,18.9360913 C29.0811715,18.3596524 29.8630898,17.3839993 29.9838195,16.2101916 C29.9909853,16.0702883 29.9957957,15.9297322 29.9982013,15.7885438 L29.9982013,15.7885438 Z M0.0161804573,16.2101916 C0.136910201,17.3839993 0.918828509,18.3596524 1.875,18.9360913 C3.1907613,18.1428695 4.17656104,16.5937055 3.56359302,14.8125 C3.19809575,13.7504123 2.53270283,12.7708255 1.875,11.9848073 C1.21729717,12.7708255 0.551904251,13.7504123 0.186406979,14.8125 C0.0712264461,15.1471997 0.0124964296,15.4737063 0.00179873204,15.7885438 C0.00420434095,15.9297322 0.00901469139,16.0702883 0.0161804573,16.2101916 L0.0161804573,16.2101916 Z M16.875,11.9848073 C17.5327028,12.7708255 18.1980957,13.7504123 18.563593,14.8125 C19.176561,16.5937055 18.1907613,18.1428695 16.875,18.9360913 C15.5592387,18.1428695 14.573439,16.5937055 15.186407,14.8125 C15.5519043,13.7504123 16.2172972,12.7708255 16.875,11.9848073 L16.875,11.9848073 Z M13.125,18.9360913 C11.8092387,18.1428695 10.823439,16.5937055 11.436407,14.8125 C11.8019043,13.7504123 12.4672972,12.7708255 13.125,11.9848073 C13.7827028,12.7708255 14.4480957,13.7504123 14.813593,14.8125 C15.426561,16.5937055 14.4407613,18.1428695 13.125,18.9360913 L13.125,18.9360913 Z M20.625,18.9360913 C19.3092387,18.1428695 18.323439,16.5937055 18.936407,14.8125 C19.3019043,13.7504123 19.9672972,12.7708255 20.625,11.9848073 C21.2827028,12.7708255 21.9480957,13.7504123 22.313593,14.8125 C22.926561,16.5937055 21.9407613,18.1428695 20.625,18.9360913 L20.625,18.9360913 Z M24.375,18.9360913 C23.0592387,18.1428695 22.073439,16.5937055 22.686407,14.8125 C23.0519043,13.7504123 23.7172972,12.7708255 24.375,11.9848073 C25.0327028,12.7708255 25.6980957,13.7504123 26.063593,14.8125 C26.676561,16.5937055 25.6907613,18.1428695 24.375,18.9360913 L24.375,18.9360913 Z M9.375,11.9848073 C10.0327028,12.7708255 10.6980957,13.7504123 11.063593,14.8125 C11.676561,16.5937055 10.6907613,18.1428695 9.375,18.9360913 C8.0592387,18.1428695 7.07343896,16.5937055 7.68640698,14.8125 C8.05190425,13.7504123 8.71729717,12.7708255 9.375,11.9848073 L9.375,11.9848073 Z M5.625,11.9848073 C6.28270283,12.7708255 6.94809575,13.7504123 7.31359302,14.8125 C7.92656104,16.5937055 6.9407613,18.1428695 5.625,18.9360913 C4.3092387,18.1428695 3.32343896,16.5937055 3.93640698,14.8125 C4.30190425,13.7504123 4.96729717,12.7708255 5.625,11.9848073 L5.625,11.9848073 Z"/>
    <path fill="#34485F" d="M29.9656854,14.6523338 C29.7042765,14.8621052 27.9906034,16.2644259 26.25,18.3446146 C24.3591092,16.084818 22.5,14.625 22.5,14.625 C22.5,14.625 20.6408908,16.084818 18.75,18.3446146 C16.8591092,16.084818 15,14.625 15,14.625 C15,14.625 13.1408908,16.084818 11.25,18.3446146 C9.35910922,16.084818 7.5,14.625 7.5,14.625 C7.5,14.625 5.64089078,16.084818 3.75,18.3446146 C2.0093966,16.2644259 0.295723546,14.8621052 0.0343146258,14.6523338 C-0.61238401,23.3833524 8.01078237,30 15,30 C21.9892176,30 30.612384,23.3833524 29.9656854,14.6523338 L29.9656854,14.6523338 Z"/>
    <path fill="#273648" d="M22.2542875,27.8897454 C20.3317168,29.0059363 18.2459942,29.7203803 16.2389993,29.9332035 C15.1002939,28.3170721 14.5981067,26.2511989 15.372814,24 C16.1038085,21.8758247 17.4345943,19.916651 18.75,18.3446146 C20.0654057,19.916651 21.3961915,21.8758247 22.127186,24 C22.6047153,25.3876381 22.5970904,26.704862 22.2542875,27.8897454 L22.2542875,27.8897454 Z M7.74571254,27.8897454 C7.40290957,26.704862 7.3952847,25.3876381 7.87281396,24 C8.6038085,21.8758247 9.93459435,19.916651 11.25,18.3446146 C12.5654057,19.916651 13.8961915,21.8758247 14.627186,24 C15.4018933,26.2511989 14.8997061,28.3170721 13.7609998,29.9332034 C11.7540058,29.7203803 9.66828324,29.0059363 7.74571254,27.8897454 L7.74571254,27.8897454 Z M22.6778853,27.6356607 C22.4042684,26.5176625 22.4291529,25.2892214 22.872814,24 C23.6038085,21.8758247 24.9345943,19.916651 26.25,18.3446146 C27.0364354,19.2844807 27.8283684,20.3627262 28.494335,21.5318802 C27.1621746,24.0575376 25.0631165,26.158296 22.6778887,27.6356586 L22.6778853,27.6356607 Z M7.32211469,27.6356607 C7.59573158,26.5176625 7.57084706,25.2892214 7.12718604,24 C6.3961915,21.8758247 5.06540565,19.916651 3.75,18.3446146 C2.96356459,19.2844807 2.17163163,20.3627262 1.50566496,21.5318802 C2.83782537,24.0575376 4.93688346,26.158296 7.32211126,27.6356586 L7.32211469,27.6356607 Z"/>
  </g>
</svg>
